<svg class="svg-icon" style="width: 1em; height: 1em;vertical-align: middle;fill: currentColor;overflow: hidden;" viewBox="0 0 1024 1024" version="1.1" xmlns="http://www.w3.org/2000/svg"><path d="M475.776 1017.8816c-160.2176-55.488-218.0992-100.8-218.2016-100.8C91.072 802.3936 89.6 651.8144 89.6 651.8144V176.576c0-23.296 18.7648-43.3152 41.8304-44.16 118.272-4.224 292.3392-92.0192 356.096-126.2208a51.4816 51.4816 0 0 1 48.96 0c63.744 34.304 237.9136 121.984 356.0832 126.2208 23.0656 0.8448 41.8304 20.864 41.8304 44.16v475.2384s-1.472 150.5792-167.9744 265.2672c0 0-57.8816 45.312-218.0992 100.8a110.6688 110.6688 0 0 1-72.5504 0zM512 780.8c148.4544 0 268.8-120.3456 268.8-268.8s-120.3456-268.8-268.8-268.8-268.8 120.3456-268.8 268.8 120.3456 268.8 268.8 268.8z" fill="#2196F3" fill-opacity=".3" /><path d="M512 793.6c-155.52 0-281.6-126.08-281.6-281.6s126.08-281.6 281.6-281.6 281.6 126.08 281.6 281.6-126.08 281.6-281.6 281.6z" fill="#1989FA" /><path d="M512 742.4c127.2448 0 230.4-103.1552 230.4-230.4s-103.1552-230.4-230.4-230.4-230.4 103.1552-230.4 230.4 103.1552 230.4 230.4 230.4z" fill="#FFFFFF" /><path d="M675.4304 701.0304a50.0992 50.0992 0 0 1 70.848 0l64.9088 64.896a50.0992 50.0992 0 0 1-70.8608 70.8608l-64.896-64.896a50.0992 50.0992 0 0 1 0-70.8608zM489.7536 533.7216l91.0208-91.0208a25.6 25.6 0 0 1 36.1984 36.1984L508.3648 587.52a25.4976 25.4976 0 0 1-9.9712 6.1824 25.6 25.6 0 0 1-26.9952-5.9136l-54.2976-54.2976a25.6 25.6 0 0 1 36.1984-36.2112l36.4544 36.4544z" fill="#1989FA" /></svg>